# xmcd
#
# Track frame offsets: 
#        150
#        22050
#        50324
#        60792
#        69622
#        85455
#        100806
#        114005
#        128457
#        137596
#        153270
#        162698
#        176010
#
# Disc length: 2621 seconds
#
# Revision: 0
# Processed by: cddbd v1.5.2PL0 Copyright (c) Steve Scherf et al.
# Submitted via: ExactAudioCopy v0.95b4
#
DISCID=a10a3b0d
DTITLE=Schüler der Musikschule Soest - faces of music
DYEAR=2007
DGENRE=Classical
TTITLE0=Claude Debussy: Allegro vivo aus Sonate für Violine und Klavie
TTITLE0=r
TTITLE1=Johannes Brahms: Rhapsodie g-Moll op. 79 Nr.2
TTITLE2=Johannes Brahms:Walzer op.39 Nr.3 h-Moll
TTITLE3=Johannes Brahms:Walzer op.39 Nr.5 As-Dur
TTITLE4=Guy Lacour: Noctilène für Altsaxophon und Klavier
TTITLE5=Alfred Schnittke: Tempo di Minuetto aus Suite im alten Stil
TTITLE6=Leonard Bernstein: West Side Story
TTITLE7=Francois Couperin: Les Barricades Mystérieuses
TTITLE8=Joep Wanders: Latin Breeze
TTITLE9=Antonio Vivaldi: Concerto a-Moll op.3 Nr.6 Allegro
TTITLE10=Antonio Vivaldi: Concerto a-Moll op.3 Nr.6 Largo
TTITLE11=Antonio Vivaldi: Concerto a-Moll op.3 Nr.6 Presto
TTITLE12=Sergei Prokofjew: Triumphmarsch aus Peter und der Wolf
EXTD=
EXTT0=
EXTT1=
EXTT2=
EXTT3=
EXTT4=
EXTT5=
EXTT6=
EXTT7=
EXTT8=
EXTT9=
EXTT10=
EXTT11=
EXTT12=
PLAYORDER=
